{
    "asset" : {
        "generator" : "Khronos glTF Blender I/O v3.2.0",
        "version" : "2.0"
    },
    "scene" : 0,
    "scenes" : [
        {
            "name" : "Scene",
            "nodes" : [
                0,
                1
            ]
        }
    ],
    "nodes" : [
        {
            "mesh" : 0,
            "name" : "Sphere",
            "translation" : [
                0,
                -0.7633731365203857,
                3.6641528606414795
            ]
        },
        {
            "mesh" : 1,
            "name" : "NurbsPath",
            "rotation" : [
                0,
                0.7071067690849304,
                0,
                0.7071068286895752
            ],
            "scale" : [
                3.0592892169952393,
                3.0592892169952393,
                3.0592892169952393
            ],
            "translation" : [
                0,
                -0.7633731365203857,
                -3.198054552078247
            ]
        }
    ],
    "materials" : [
        {
            "doubleSided" : true,
            "name" : "Material.001",
            "pbrMetallicRoughness" : {
                "metallicFactor" : 0,
                "roughnessFactor" : 0.30000001192092896
            }
        },
        {
            "doubleSided" : true,
            "name" : "Material.002",
            "pbrMetallicRoughness" : {
                "baseColorFactor" : [
                    0,
                    0,
                    0,
                    1
                ],
                "metallicFactor" : 0,
                "roughnessFactor" : 0.5
            }
        }
    ],
    "meshes" : [
        {
            "name" : "Sphere",
            "primitives" : [
                {
                    "attributes" : {
                        "POSITION" : 0,
                        "NORMAL" : 1,
                        "TEXCOORD_0" : 2
                    },
                    "indices" : 3,
                    "material" : 0
                }
            ]
        },
        {
            "name" : "NurbsPath",
            "primitives" : [
                {
                    "attributes" : {
                        "POSITION" : 4,
                        "NORMAL" : 5,
                        "TEXCOORD_0" : 6
                    },
                    "indices" : 7,
                    "material" : 1
                }
            ]
        }
    ],
    "accessors" : [
        {
            "bufferView" : 0,
            "componentType" : 5126,
            "count" : 2987,
            "max" : [
                0.9999997019767761,
                0.9999987483024597,
                1
            ],
            "min" : [
                -0.9999990463256836,
                -0.9999994039535522,
                -1.6066104173660278
            ],
            "type" : "VEC3"
        },
        {
            "bufferView" : 1,
            "componentType" : 5126,
            "count" : 2987,
            "type" : "VEC3"
        },
        {
            "bufferView" : 2,
            "componentType" : 5126,
            "count" : 2987,
            "type" : "VEC2"
        },
        {
            "bufferView" : 3,
            "componentType" : 5123,
            "count" : 16896,
            "type" : "SCALAR"
        },
        {
            "bufferView" : 4,
            "componentType" : 5126,
            "count" : 648,
            "max" : [
                0.9643862843513489,
                0.3385731279850006,
                0.347241073846817
            ],
            "min" : [
                -1.74653160572052,
                -0.010446622967720032,
                -0.01058219000697136
            ],
            "type" : "VEC3"
        },
        {
            "bufferView" : 5,
            "componentType" : 5126,
            "count" : 648,
            "type" : "VEC3"
        },
        {
            "bufferView" : 6,
            "componentType" : 5126,
            "count" : 648,
            "type" : "VEC2"
        },
        {
            "bufferView" : 7,
            "componentType" : 5123,
            "count" : 3444,
            "type" : "SCALAR"
        }
    ],
    "bufferViews" : [
        {
            "buffer" : 0,
            "byteLength" : 35844,
            "byteOffset" : 0
        },
        {
            "buffer" : 0,
            "byteLength" : 35844,
            "byteOffset" : 35844
        },
        {
            "buffer" : 0,
            "byteLength" : 23896,
            "byteOffset" : 71688
        },
        {
            "buffer" : 0,
            "byteLength" : 33792,
            "byteOffset" : 95584
        },
        {
            "buffer" : 0,
            "byteLength" : 7776,
            "byteOffset" : 129376
        },
        {
            "buffer" : 0,
            "byteLength" : 7776,
            "byteOffset" : 137152
        },
        {
            "buffer" : 0,
            "byteLength" : 5184,
            "byteOffset" : 144928
        },
        {
            "buffer" : 0,
            "byteLength" : 6888,
            "byteOffset" : 150112
        }
    ],
    "buffers" : [
        {
            "byteLength" : 157000,
            "uri" : "balloon1.bin"
        }
    ]
}
