{
  "accessors": [
    {
      "bufferView": 2,
      "componentType": 5126,
      "count": 4988,
      "max": [
        124.56770324707031,
        102.06356048583984,
        453.2936706542969
      ],
      "min": [
        -121.82637786865234,
        -43.24856948852539,
        -453.2936706542969
      ],
      "type": "VEC3"
    },
    {
      "bufferView": 2,
      "byteOffset": 59856,
      "componentType": 5126,
      "count": 4988,
      "type": "VEC3"
    },
    {
      "bufferView": 1,
      "componentType": 5126,
      "count": 4988,
      "type": "VEC2"
    },
    {
      "bufferView": 0,
      "componentType": 5125,
      "count": 19452,
      "type": "SCALAR"
    },
    {
      "bufferView": 2,
      "byteOffset": 119712,
      "componentType": 5126,
      "count": 3478,
      "max": [
        124.56770324707031,
        102.06356048583984,
        453.2936706542969
      ],
      "min": [
        -121.82637786865234,
        -43.24856948852539,
        -453.2936706542969
      ],
      "type": "VEC3"
    },
    {
      "bufferView": 2,
      "byteOffset": 161448,
      "componentType": 5126,
      "count": 3478,
      "type": "VEC3"
    },
    {
      "bufferView": 1,
      "byteOffset": 39904,
      "componentType": 5126,
      "count": 3478,
      "type": "VEC2"
    },
    {
      "bufferView": 0,
      "byteOffset": 77808,
      "componentType": 5125,
      "count": 12192,
      "type": "SCALAR"
    },
    {
      "bufferView": 2,
      "byteOffset": 203184,
      "componentType": 5126,
      "count": 1400,
      "max": [
        124.56770324707031,
        102.0447006225586,
        451.5869140625
      ],
      "min": [
        -121.82637786865234,
        -43.24856948852539,
        -451.5869140625
      ],
      "type": "VEC3"
    },
    {
      "bufferView": 2,
      "byteOffset": 219984,
      "componentType": 5126,
      "count": 1400,
      "type": "VEC3"
    },
    {
      "bufferView": 1,
      "byteOffset": 67728,
      "componentType": 5126,
      "count": 1400,
      "type": "VEC2"
    },
    {
      "bufferView": 0,
      "byteOffset": 126576,
      "componentType": 5125,
      "count": 3360,
      "type": "SCALAR"
    }
  ],
  "asset": {
    "generator": "fab-model-conversion",
    "version": "2.0"
  },
  "bufferViews": [
    {
      "buffer": 0,
      "byteLength": 140016,
      "target": 34963
    },
    {
      "buffer": 0,
      "byteLength": 78928,
      "byteOffset": 140016,
      "byteStride": 8,
      "target": 34962
    },
    {
      "buffer": 0,
      "byteLength": 236784,
      "byteOffset": 218944,
      "byteStride": 12,
      "target": 34962
    }
  ],
  "buffers": [
    {
      "byteLength": 455728,
      "uri": "scene.bin"
    }
  ],
  "materials": [
    {
      "doubleSided": true,
      "name": "Material",
      "pbrMetallicRoughness": {
        "baseColorFactor": [
          0.8,
          0.8,
          0.8,
          1.0
        ],
        "metallicFactor": 0.0
      }
    }
  ],
  "meshes": [
    {
      "name": "Bridge01_LOD0_Material_0",
      "primitives": [
        {
          "attributes": {
            "NORMAL": 1,
            "POSITION": 0,
            "TEXCOORD_0": 2
          },
          "indices": 3,
          "material": 0,
          "mode": 4
        }
      ]
    },
    {
      "name": "Bridge01_LOD1_Material_0",
      "primitives": [
        {
          "attributes": {
            "NORMAL": 5,
            "POSITION": 4,
            "TEXCOORD_0": 6
          },
          "indices": 7,
          "material": 0,
          "mode": 4
        }
      ]
    },
    {
      "name": "Bridge01_LOD2_Material_0",
      "primitives": [
        {
          "attributes": {
            "NORMAL": 9,
            "POSITION": 8,
            "TEXCOORD_0": 10
          },
          "indices": 11,
          "material": 0,
          "mode": 4
        }
      ]
    }
  ],
  "nodes": [
    {
      "children": [
        1
      ],
      "matrix": [
        1.0,
        0.0,
        0.0,
        0.0,
        0.0,
        2.220446049250313e-16,
        -1.0,
        0.0,
        0.0,
        1.0,
        2.220446049250313e-16,
        0.0,
        0.0,
        0.0,
        0.0,
        1.0
      ],
      "name": "Sketchfab_model"
    },
    {
      "children": [
        2
      ],
      "matrix": [
        0.009999999776482582,
        0.0,
        0.0,
        0.0,
        0.0,
        0.0,
        0.009999999776482582,
        0.0,
        0.0,
        -0.009999999776482582,
        0.0,
        0.0,
        0.0,
        0.0,
        0.0,
        1.0
      ],
      "name": "Bridge01.fbx"
    },
    {
      "children": [
        3,
        5,
        7
      ],
      "name": "RootNode"
    },
    {
      "children": [
        4
      ],
      "name": "Bridge01_LOD0"
    },
    {
      "mesh": 0,
      "name": "Bridge01_LOD0_Material_0"
    },
    {
      "children": [
        6
      ],
      "name": "Bridge01_LOD1"
    },
    {
      "mesh": 1,
      "name": "Bridge01_LOD1_Material_0"
    },
    {
      "children": [
        8
      ],
      "name": "Bridge01_LOD2"
    },
    {
      "mesh": 2,
      "name": "Bridge01_LOD2_Material_0"
    }
  ],
  "scene": 0,
  "scenes": [
    {
      "name": "Sketchfab_Scene",
      "nodes": [
        0
      ]
    }
  ]
}
